<?xml version="1.0" standalone="no"?>
<!DOCTYPE svg PUBLIC "-//W3C//DTD SVG 20010904//EN"
 "http://www.w3.org/TR/2001/REC-SVG-20010904/DTD/svg10.dtd">
<svg version="1.0" xmlns="http://www.w3.org/2000/svg"
 width="512.000000pt" height="512.000000pt" viewBox="0 0 512.000000 512.000000"
 preserveAspectRatio="xMidYMid meet">
<metadata>
Created by potrace 1.14, written by Peter Selinger 2001-2017
</metadata>
<g transform="translate(0.000000,512.000000) scale(0.100000,-0.100000)"
fill="#000000" stroke="none">
<path d="M430 5113 c-180 -30 -335 -161 -402 -339 l-23 -59 -3 -2129 c-2
-1890 -1 -2136 13 -2190 25 -100 63 -166 139 -242 80 -79 163 -125 260 -143
84 -15 4208 -15 4292 0 97 18 180 64 260 143 76 76 114 142 139 242 14 54 15
300 13 2190 l-3 2129 -23 59 c-30 81 -73 144 -135 203 -63 59 -106 86 -183
116 l-59 22 -2130 1 c-1172 1 -2141 -1 -2155 -3z m2595 -939 c335 -40 567
-153 605 -295 37 -135 -78 -586 -245 -962 l-25 -57 151 0 c146 0 151 -1 174
-25 17 -16 25 -35 25 -57 0 -30 -52 -222 -78 -288 -15 -39 -61 -79 -100 -86
-34 -7 -224 1 -327 12 l-50 6 -54 -104 c-94 -179 -240 -428 -337 -576 l-94
-143 77 -36 c138 -62 226 -95 301 -109 145 -28 266 -13 356 43 61 39 185 162
304 303 139 164 179 206 213 220 65 28 95 -33 86 -180 -10 -195 -97 -367 -277
-551 -198 -202 -394 -293 -662 -306 -205 -10 -326 20 -575 144 l-153 75 -56
-51 c-170 -155 -339 -220 -599 -228 -228 -7 -349 29 -445 134 -64 70 -99 147
-118 257 -28 165 10 298 111 394 101 94 229 140 422 149 135 6 316 -8 450 -37
50 -10 93 -15 97 -12 26 28 288 553 288 579 0 8 -100 -2 -378 -38 -266 -33
-412 -38 -433 -13 -17 21 2 94 39 148 97 142 458 290 868 356 l71 11 36 117
c20 64 66 225 102 357 37 132 75 271 87 308 11 37 18 70 16 72 -2 2 -47 16
-98 30 -172 47 -388 45 -628 -6 -50 -11 -194 -52 -320 -90 -223 -70 -314 -88
-366 -75 -71 18 -88 97 -38 177 106 166 502 367 836 425 206 36 478 39 741 8z"/>
<path d="M1611 1493 c-96 -48 -93 -178 5 -219 80 -34 163 -3 271 100 l67 63
-30 16 c-107 55 -246 73 -313 40z"/>
</g>
</svg>
